<svg xmlns="http://www.w3.org/2000/svg" width="500" viewBox="0 0 500 500" height="500" version="1.0"><path fill="#FFF" d="M-37.5 -37.5H412.5V412.5H-37.5z"/><path fill="#FFF" d="M-37.5 -37.5H412.5V412.5H-37.5z"/><path fill="#FFF" d="M-37.5 -37.5H412.5V412.5H-37.5z"/><g fill="#FF914D"><g><g><path d="M 31.703125 -41.640625 C 34.085938 -41.640625 36.269531 -41.070312 38.25 -39.9375 C 40.226562 -38.8125 41.820312 -37.285156 43.03125 -35.359375 C 44.238281 -33.441406 44.84375 -31.269531 44.84375 -28.84375 C 44.84375 -26.351562 44.195312 -24.101562 42.90625 -22.09375 C 41.625 -20.09375 39.921875 -18.5 37.796875 -17.3125 C 35.679688 -16.125 33.351562 -15.53125 30.8125 -15.53125 L 15.828125 -15.53125 L 15.828125 0 L 9.40625 0 L 9.40625 -41.640625 Z M 30.390625 -21.71875 C 31.785156 -21.71875 33.066406 -22.039062 34.234375 -22.6875 C 35.398438 -23.34375 36.328125 -24.207031 37.015625 -25.28125 C 37.710938 -26.351562 38.0625 -27.539062 38.0625 -28.84375 C 38.0625 -30.070312 37.710938 -31.179688 37.015625 -32.171875 C 36.328125 -33.171875 35.398438 -33.96875 34.234375 -34.5625 C 33.066406 -35.15625 31.785156 -35.453125 30.390625 -35.453125 L 15.828125 -35.453125 L 15.828125 -21.71875 Z M 30.390625 -21.71875" transform="translate(1.559 192.998)"/></g></g></g><g fill="#FF914D"><g><g><path d="M 42.953125 -31.234375 L 42.953125 0 L 36.765625 0 L 36.765625 -5.296875 C 36.003906 -4.304688 34.941406 -3.363281 33.578125 -2.46875 C 32.210938 -1.570312 30.625 -0.835938 28.8125 -0.265625 C 27.007812 0.304688 25.117188 0.59375 23.140625 0.59375 C 19.648438 0.59375 16.601562 -0.0976562 14 -1.484375 C 11.40625 -2.867188 9.382812 -4.789062 7.9375 -7.25 C 6.488281 -9.707031 5.765625 -12.503906 5.765625 -15.640625 C 5.765625 -18.816406 6.523438 -21.625 8.046875 -24.0625 C 9.578125 -26.5 11.679688 -28.410156 14.359375 -29.796875 C 17.035156 -31.191406 20.140625 -31.890625 23.671875 -31.890625 C 26.566406 -31.890625 29.164062 -31.378906 31.46875 -30.359375 C 33.769531 -29.347656 35.535156 -28.171875 36.765625 -26.828125 L 36.765625 -31.234375 Z M 24.5 -5.0625 C 27 -5.0625 29.179688 -5.523438 31.046875 -6.453125 C 32.910156 -7.390625 34.367188 -8.648438 35.421875 -10.234375 C 36.472656 -11.816406 37 -13.617188 37 -15.640625 C 37 -17.660156 36.472656 -19.460938 35.421875 -21.046875 C 34.367188 -22.640625 32.910156 -23.890625 31.046875 -24.796875 C 29.179688 -25.710938 27 -26.171875 24.5 -26.171875 C 22.039062 -26.171875 19.878906 -25.710938 18.015625 -24.796875 C 16.160156 -23.890625 14.695312 -22.640625 13.625 -21.046875 C 12.550781 -19.460938 12.015625 -17.660156 12.015625 -15.640625 C 12.015625 -13.617188 12.550781 -11.816406 13.625 -10.234375 C 14.695312 -8.648438 16.160156 -7.390625 18.015625 -6.453125 C 19.878906 -5.523438 22.039062 -5.0625 24.5 -5.0625 Z M 24.5 -5.0625" transform="translate(48.054 192.998)"/></g></g></g><g fill="#FF914D"><g><g><path d="M 36.21875 -15.40625 L 36.21875 -31.234375 L 42.359375 -31.234375 L 42.359375 0 L 36.21875 0 L 36.21875 -5.359375 C 35.070312 -3.847656 33.367188 -2.476562 31.109375 -1.25 C 28.847656 -0.0195312 26.09375 0.59375 22.84375 0.59375 C 20.226562 0.59375 17.9375 -0.0078125 15.96875 -1.21875 C 14.007812 -2.425781 12.484375 -4.160156 11.390625 -6.421875 C 10.296875 -8.679688 9.75 -11.378906 9.75 -14.515625 L 9.75 -31.234375 L 15.875 -31.234375 L 15.875 -16.59375 C 15.875 -13.03125 16.617188 -10.253906 18.109375 -8.265625 C 19.597656 -6.285156 22.007812 -5.296875 25.34375 -5.296875 C 27.320312 -5.296875 29.132812 -5.703125 30.78125 -6.515625 C 32.425781 -7.328125 33.742188 -8.484375 34.734375 -9.984375 C 35.722656 -11.492188 36.21875 -13.300781 36.21875 -15.40625 Z M 36.21875 -15.40625" transform="translate(95.857 192.998)"/></g></g></g><g fill="#FF914D"><g><g><path d="M 10.171875 0 L 10.171875 -44.015625 L 16.296875 -44.015625 L 16.296875 0 Z M 10.171875 0" transform="translate(143.066 192.998)"/></g></g></g><g fill="#FF914D"><g><g><path d="M 42.765625 0 L 38.1875 -9.9375 L 15.640625 -9.9375 L 11.0625 0 L 4.34375 0 L 23.5 -41.640625 L 30.75 -41.640625 L 49.78125 0 Z M 23.671875 -27.421875 L 18.5 -16.125 L 35.390625 -16.125 L 30.046875 -27.65625 C 29.484375 -28.882812 28.941406 -30.09375 28.421875 -31.28125 C 27.910156 -32.476562 27.421875 -33.75 26.953125 -35.09375 C 26.390625 -33.707031 25.835938 -32.390625 25.296875 -31.140625 C 24.765625 -29.890625 24.222656 -28.648438 23.671875 -27.421875 Z M 23.671875 -27.421875" transform="translate(164.766 192.998)"/></g></g></g><g fill="#FF914D"><g><g><path d="M 15.578125 13.6875 L 22.1875 1.546875 L 4.8125 -31.234375 L 11.953125 -31.234375 L 21.359375 -12.484375 C 22.222656 -10.828125 23.015625 -9.253906 23.734375 -7.765625 C 24.453125 -6.273438 25.007812 -4.9375 25.40625 -3.75 C 25.914062 -4.976562 26.488281 -6.328125 27.125 -7.796875 C 27.757812 -9.265625 28.515625 -10.867188 29.390625 -12.609375 L 38.0625 -31.234375 L 45.265625 -31.234375 L 29.140625 -0.0625 L 22.1875 13.6875 Z M 15.578125 13.6875" transform="translate(213.997 192.998)"/></g></g></g><g fill="#FF914D"><g><g><path d="M 14.3125 -38.171875 C 12.882812 -38.171875 11.84375 -38.523438 11.1875 -39.234375 C 10.539062 -39.953125 10.21875 -40.890625 10.21875 -42.046875 C 10.21875 -43.035156 10.539062 -43.925781 11.1875 -44.71875 C 11.84375 -45.507812 12.882812 -45.90625 14.3125 -45.90625 C 15.707031 -45.90625 16.738281 -45.546875 17.40625 -44.828125 C 18.082031 -44.117188 18.421875 -43.191406 18.421875 -42.046875 C 18.421875 -41.054688 18.082031 -40.160156 17.40625 -39.359375 C 16.738281 -38.566406 15.707031 -38.171875 14.3125 -38.171875 Z M 16.875 0 L 10.75 0 L 10.75 -31.234375 L 16.875 -31.234375 Z M 16.875 0" transform="translate(259.184 192.998)"/></g></g></g><g fill="#FF914D"><g><g><path d="M 12.484375 -15.640625 C 12.484375 -13.578125 13.03125 -11.742188 14.125 -10.140625 C 15.21875 -8.535156 16.6875 -7.265625 18.53125 -6.328125 C 20.375 -5.398438 22.40625 -4.9375 24.625 -4.9375 C 27.476562 -4.9375 29.9375 -5.421875 32 -6.390625 C 34.0625 -7.367188 35.828125 -8.375 37.296875 -9.40625 L 40.625 -4.8125 C 38.6875 -3.351562 36.367188 -2.085938 33.671875 -1.015625 C 30.972656 0.0546875 27.878906 0.59375 24.390625 0.59375 C 20.941406 0.59375 17.847656 -0.117188 15.109375 -1.546875 C 12.367188 -2.972656 10.207031 -4.914062 8.625 -7.375 C 7.039062 -9.832031 6.25 -12.585938 6.25 -15.640625 C 6.25 -18.734375 7.039062 -21.5 8.625 -23.9375 C 10.207031 -26.375 12.367188 -28.304688 15.109375 -29.734375 C 17.847656 -31.171875 20.941406 -31.890625 24.390625 -31.890625 C 27.835938 -31.890625 31 -31.34375 33.875 -30.25 C 36.75 -29.15625 39 -27.65625 40.625 -25.75 L 37.171875 -21 C 36.222656 -21.988281 35.054688 -22.890625 33.671875 -23.703125 C 32.285156 -24.515625 30.796875 -25.160156 29.203125 -25.640625 C 27.617188 -26.117188 26.070312 -26.359375 24.5625 -26.359375 C 22.1875 -26.359375 20.085938 -25.890625 18.265625 -24.953125 C 16.441406 -24.023438 15.019531 -22.753906 14 -21.140625 C 12.988281 -19.535156 12.484375 -17.703125 12.484375 -15.640625 Z M 12.484375 -15.640625" transform="translate(281.954 192.998)"/></g></g></g><g fill="#FF914D"><g><g><path d="M 10.171875 0 L 10.171875 -44.015625 L 15.875 -44.015625 L 15.875 -15.46875 L 35.453125 -31.234375 L 43.953125 -31.234375 L 27.421875 -18.203125 L 44.25 0 L 36.40625 0 L 22.90625 -14.640625 L 15.875 -9.09375 L 15.875 0 Z M 10.171875 0" transform="translate(323.633 192.998)"/></g></g></g><g fill="#400040"><g><g><path d="M 22.296875 -19.859375 L 13.765625 0 L 10.390625 0 L 1.765625 -19.859375 L 5.25 -19.859375 L 10.296875 -7.921875 C 10.578125 -7.210938 10.894531 -6.460938 11.25 -5.671875 C 11.601562 -4.878906 11.929688 -4.113281 12.234375 -3.375 C 12.492188 -4.113281 12.785156 -4.875 13.109375 -5.65625 C 13.429688 -6.445312 13.734375 -7.191406 14.015625 -7.890625 L 18.703125 -19.859375 Z M 22.296875 -19.859375" transform="translate(27.73 232.026)"/></g></g></g><g fill="#400040"><g><g><path d="M 6.375 -17.734375 C 5.71875 -17.734375 5.226562 -17.898438 4.90625 -18.234375 C 4.582031 -18.578125 4.421875 -19.023438 4.421875 -19.578125 C 4.421875 -20.046875 4.582031 -20.46875 4.90625 -20.84375 C 5.226562 -21.226562 5.71875 -21.421875 6.375 -21.421875 C 7.039062 -21.421875 7.53125 -21.25 7.84375 -20.90625 C 8.164062 -20.570312 8.328125 -20.128906 8.328125 -19.578125 C 8.328125 -19.109375 8.164062 -18.679688 7.84375 -18.296875 C 7.53125 -17.921875 7.039062 -17.734375 6.375 -17.734375 Z M 8.015625 0 L 5.09375 0 L 5.09375 -14.890625 L 8.015625 -14.890625 Z M 8.015625 0" transform="translate(56.766 232.026)"/></g></g></g><g fill="#400040"><g><g><path d="M 13 -15.203125 C 14.457031 -15.203125 15.644531 -14.914062 16.5625 -14.34375 C 17.476562 -13.78125 18.144531 -13.019531 18.5625 -12.0625 C 18.988281 -11.113281 19.203125 -10.0625 19.203125 -8.90625 L 19.203125 0 L 16.28125 0 L 16.28125 -8.5625 C 16.28125 -9.71875 15.914062 -10.671875 15.1875 -11.421875 C 14.46875 -12.179688 13.460938 -12.546875 12.171875 -12.515625 C 11.242188 -12.515625 10.410156 -12.304688 9.671875 -11.890625 C 8.929688 -11.472656 8.351562 -10.945312 7.9375 -10.3125 C 7.53125 -9.675781 7.328125 -9.039062 7.328125 -8.40625 L 7.328125 0 L 4.390625 0 L 4.390625 -14.890625 L 7.328125 -14.890625 L 7.328125 -12.3125 C 7.929688 -13.09375 8.710938 -13.769531 9.671875 -14.34375 C 10.640625 -14.914062 11.75 -15.203125 13 -15.203125 Z M 13 -15.203125" transform="translate(73.782 232.026)"/></g></g></g><g fill="#400040"><g><g><path d="M 9.3125 0 L 6.390625 0 L 6.390625 -12.0625 L 2.328125 -12.0625 L 2.328125 -14.890625 L 6.390625 -14.890625 L 6.390625 -19.1875 L 9.3125 -19.1875 L 9.3125 -14.890625 L 14.046875 -14.890625 L 14.046875 -12.0625 L 9.3125 -12.0625 Z M 9.3125 0" transform="translate(102.308 232.026)"/></g></g></g><g fill="#400040"><g><g><path d="M 19.46875 -14.890625 L 19.46875 0 L 16.515625 0 L 16.515625 -2.46875 C 16.171875 -2.007812 15.6875 -1.570312 15.0625 -1.15625 C 14.4375 -0.75 13.71875 -0.40625 12.90625 -0.125 C 12.09375 0.144531 11.234375 0.28125 10.328125 0.28125 C 8.753906 0.28125 7.367188 -0.046875 6.171875 -0.703125 C 4.984375 -1.367188 4.054688 -2.285156 3.390625 -3.453125 C 2.722656 -4.628906 2.390625 -5.96875 2.390625 -7.46875 C 2.390625 -8.976562 2.738281 -10.3125 3.4375 -11.46875 C 4.132812 -12.632812 5.101562 -13.546875 6.34375 -14.203125 C 7.582031 -14.867188 9.015625 -15.203125 10.640625 -15.203125 C 11.941406 -15.203125 13.109375 -14.960938 14.140625 -14.484375 C 15.171875 -14.003906 15.960938 -13.453125 16.515625 -12.828125 L 16.515625 -14.890625 Z M 10.984375 -2.40625 C 12.117188 -2.40625 13.101562 -2.628906 13.9375 -3.078125 C 14.78125 -3.523438 15.4375 -4.125 15.90625 -4.875 C 16.382812 -5.632812 16.625 -6.5 16.625 -7.46875 C 16.625 -8.425781 16.382812 -9.285156 15.90625 -10.046875 C 15.4375 -10.804688 14.78125 -11.398438 13.9375 -11.828125 C 13.101562 -12.265625 12.117188 -12.484375 10.984375 -12.484375 C 9.878906 -12.484375 8.90625 -12.265625 8.0625 -11.828125 C 7.226562 -11.398438 6.566406 -10.804688 6.078125 -10.046875 C 5.597656 -9.285156 5.359375 -8.425781 5.359375 -7.46875 C 5.359375 -6.5 5.597656 -5.632812 6.078125 -4.875 C 6.566406 -4.125 7.226562 -3.523438 8.0625 -3.078125 C 8.90625 -2.628906 9.878906 -2.40625 10.984375 -2.40625 Z M 10.984375 -2.40625" transform="translate(123.973 232.026)"/></g></g></g><g fill="#400040"><g><g><path d="M 6.1875 2.390625 C 6.789062 2.742188 7.566406 3.085938 8.515625 3.421875 C 9.472656 3.753906 10.5625 3.921875 11.78125 3.921875 C 13.363281 3.921875 14.628906 3.484375 15.578125 2.609375 C 16.523438 1.742188 17 0.476562 17 -1.1875 L 17 -2.5 C 16.695312 -2.019531 16.226562 -1.566406 15.59375 -1.140625 C 14.957031 -0.722656 14.207031 -0.378906 13.34375 -0.109375 C 12.488281 0.148438 11.585938 0.28125 10.640625 0.28125 C 9.066406 0.28125 7.671875 -0.046875 6.453125 -0.703125 C 5.234375 -1.367188 4.273438 -2.285156 3.578125 -3.453125 C 2.890625 -4.628906 2.546875 -5.96875 2.546875 -7.46875 C 2.546875 -8.976562 2.90625 -10.3125 3.625 -11.46875 C 4.34375 -12.632812 5.328125 -13.546875 6.578125 -14.203125 C 7.828125 -14.867188 9.257812 -15.203125 10.875 -15.203125 C 12.269531 -15.203125 13.507812 -14.945312 14.59375 -14.4375 C 15.6875 -13.925781 16.488281 -13.367188 17 -12.765625 L 17 -14.890625 L 19.921875 -14.890625 L 19.921875 -1.53125 C 19.921875 -0.132812 19.695312 1.070312 19.25 2.09375 C 18.800781 3.113281 18.191406 3.953125 17.421875 4.609375 C 16.660156 5.265625 15.789062 5.75 14.8125 6.0625 C 13.84375 6.375 12.832031 6.53125 11.78125 6.53125 C 10.34375 6.53125 9.050781 6.351562 7.90625 6 C 6.757812 5.644531 5.835938 5.222656 5.140625 4.734375 Z M 11.4375 -12.546875 C 10.28125 -12.546875 9.257812 -12.320312 8.375 -11.875 C 7.5 -11.425781 6.804688 -10.816406 6.296875 -10.046875 C 5.785156 -9.285156 5.53125 -8.425781 5.53125 -7.46875 C 5.53125 -6.5 5.785156 -5.632812 6.296875 -4.875 C 6.804688 -4.125 7.5 -3.523438 8.375 -3.078125 C 9.257812 -2.628906 10.28125 -2.40625 11.4375 -2.40625 C 12.550781 -2.40625 13.535156 -2.625 14.390625 -3.0625 C 15.253906 -3.5 15.921875 -4.097656 16.390625 -4.859375 C 16.867188 -5.628906 17.109375 -6.5 17.109375 -7.46875 C 17.109375 -8.445312 16.867188 -9.3125 16.390625 -10.0625 C 15.921875 -10.820312 15.253906 -11.425781 14.390625 -11.875 C 13.535156 -12.320312 12.550781 -12.546875 11.4375 -12.546875 Z M 11.4375 -12.546875" transform="translate(152.499 232.026)"/></g></g></g><g fill="#400040"><g><g><path d="M 18.640625 -1.953125 L 18.609375 -1.953125 C 18.117188 -1.578125 17.5 -1.210938 16.75 -0.859375 C 16.007812 -0.515625 15.1875 -0.238281 14.28125 -0.03125 C 13.382812 0.175781 12.472656 0.28125 11.546875 0.28125 C 9.734375 0.28125 8.140625 -0.0390625 6.765625 -0.6875 C 5.390625 -1.34375 4.316406 -2.242188 3.546875 -3.390625 C 2.785156 -4.535156 2.40625 -5.835938 2.40625 -7.296875 C 2.40625 -8.960938 2.8125 -10.382812 3.625 -11.5625 C 4.445312 -12.75 5.523438 -13.65625 6.859375 -14.28125 C 8.203125 -14.914062 9.679688 -15.234375 11.296875 -15.234375 C 12.765625 -15.234375 14.101562 -14.925781 15.3125 -14.3125 C 16.53125 -13.695312 17.5 -12.847656 18.21875 -11.765625 C 18.9375 -10.691406 19.296875 -9.4375 19.296875 -8 L 19.265625 -6.578125 L 5.390625 -6.578125 C 5.617188 -5.296875 6.328125 -4.28125 7.515625 -3.53125 C 8.710938 -2.78125 10.195312 -2.40625 11.96875 -2.40625 C 13.289062 -2.40625 14.375 -2.601562 15.21875 -3 C 16.0625 -3.40625 16.75 -3.785156 17.28125 -4.140625 Z M 11.296875 -12.546875 C 9.835938 -12.546875 8.570312 -12.269531 7.5 -11.71875 C 6.4375 -11.164062 5.753906 -10.226562 5.453125 -8.90625 L 16.3125 -8.90625 L 16.3125 -9.28125 C 16.238281 -9.925781 15.957031 -10.492188 15.46875 -10.984375 C 14.976562 -11.472656 14.363281 -11.851562 13.625 -12.125 C 12.882812 -12.40625 12.109375 -12.546875 11.296875 -12.546875 Z M 11.296875 -12.546875" transform="translate(181.478 232.026)"/></g></g></g><g fill="#400040"><g><g><path d="M 13.8125 -19.859375 C 16.0625 -19.859375 17.757812 -19.429688 18.90625 -18.578125 C 20.050781 -17.734375 20.625 -16.5 20.625 -14.875 C 20.625 -13.976562 20.382812 -13.175781 19.90625 -12.46875 C 19.425781 -11.757812 18.722656 -11.21875 17.796875 -10.84375 C 18.472656 -10.613281 19.109375 -10.289062 19.703125 -9.875 C 20.296875 -9.457031 20.769531 -8.914062 21.125 -8.25 C 21.488281 -7.59375 21.671875 -6.789062 21.671875 -5.84375 C 21.671875 -4.6875 21.453125 -3.726562 21.015625 -2.96875 C 20.585938 -2.21875 20.019531 -1.625 19.3125 -1.1875 C 18.601562 -0.757812 17.816406 -0.453125 16.953125 -0.265625 C 16.085938 -0.0859375 15.222656 0 14.359375 0 L 4.109375 0 L 4.109375 -19.859375 Z M 13.734375 -16.90625 L 7.171875 -16.90625 L 7.171875 -11.71875 L 14.078125 -11.71875 C 14.984375 -11.738281 15.78125 -11.972656 16.46875 -12.421875 C 17.15625 -12.878906 17.5 -13.523438 17.5 -14.359375 C 17.5 -15.285156 17.132812 -15.941406 16.40625 -16.328125 C 15.6875 -16.710938 14.796875 -16.90625 13.734375 -16.90625 Z M 14.21875 -8.765625 L 7.171875 -8.765625 L 7.171875 -2.953125 L 14.359375 -2.953125 C 15.585938 -2.953125 16.59375 -3.191406 17.375 -3.671875 C 18.164062 -4.148438 18.5625 -4.894531 18.5625 -5.90625 C 18.5625 -6.644531 18.335938 -7.21875 17.890625 -7.625 C 17.441406 -8.039062 16.878906 -8.332031 16.203125 -8.5 C 15.535156 -8.675781 14.875 -8.765625 14.21875 -8.765625 Z M 14.21875 -8.765625" transform="translate(224.751 232.026)"/></g></g></g><g fill="#400040"><g><g><path d="M 14.640625 -11.515625 C 14.316406 -11.691406 13.921875 -11.832031 13.453125 -11.9375 C 12.992188 -12.050781 12.546875 -12.109375 12.109375 -12.109375 C 11.222656 -12.109375 10.414062 -11.90625 9.6875 -11.5 C 8.957031 -11.09375 8.382812 -10.554688 7.96875 -9.890625 C 7.550781 -9.234375 7.34375 -8.519531 7.34375 -7.75 L 7.34375 0 L 4.390625 0 L 4.390625 -14.890625 L 7.34375 -14.890625 L 7.34375 -11.796875 C 7.914062 -12.804688 8.679688 -13.625 9.640625 -14.25 C 10.609375 -14.882812 11.625 -15.203125 12.6875 -15.203125 C 13.21875 -15.203125 13.734375 -15.148438 14.234375 -15.046875 C 14.734375 -14.941406 15.125 -14.796875 15.40625 -14.609375 Z M 14.640625 -11.515625" transform="translate(254.043 232.026)"/></g></g></g><g fill="#400040"><g><g><path d="M 19.46875 -14.890625 L 19.46875 0 L 16.515625 0 L 16.515625 -2.46875 C 16.171875 -2.007812 15.6875 -1.570312 15.0625 -1.15625 C 14.4375 -0.75 13.71875 -0.40625 12.90625 -0.125 C 12.09375 0.144531 11.234375 0.28125 10.328125 0.28125 C 8.753906 0.28125 7.367188 -0.046875 6.171875 -0.703125 C 4.984375 -1.367188 4.054688 -2.285156 3.390625 -3.453125 C 2.722656 -4.628906 2.390625 -5.96875 2.390625 -7.46875 C 2.390625 -8.976562 2.738281 -10.3125 3.4375 -11.46875 C 4.132812 -12.632812 5.101562 -13.546875 6.34375 -14.203125 C 7.582031 -14.867188 9.015625 -15.203125 10.640625 -15.203125 C 11.941406 -15.203125 13.109375 -14.960938 14.140625 -14.484375 C 15.171875 -14.003906 15.960938 -13.453125 16.515625 -12.828125 L 16.515625 -14.890625 Z M 10.984375 -2.40625 C 12.117188 -2.40625 13.101562 -2.628906 13.9375 -3.078125 C 14.78125 -3.523438 15.4375 -4.125 15.90625 -4.875 C 16.382812 -5.632812 16.625 -6.5 16.625 -7.46875 C 16.625 -8.425781 16.382812 -9.285156 15.90625 -10.046875 C 15.4375 -10.804688 14.78125 -11.398438 13.9375 -11.828125 C 13.101562 -12.265625 12.117188 -12.484375 10.984375 -12.484375 C 9.878906 -12.484375 8.90625 -12.265625 8.0625 -11.828125 C 7.226562 -11.398438 6.566406 -10.804688 6.078125 -10.046875 C 5.597656 -9.285156 5.359375 -8.425781 5.359375 -7.46875 C 5.359375 -6.5 5.597656 -5.632812 6.078125 -4.875 C 6.566406 -4.125 7.226562 -3.523438 8.0625 -3.078125 C 8.90625 -2.628906 9.878906 -2.40625 10.984375 -2.40625 Z M 10.984375 -2.40625" transform="translate(276.473 232.026)"/></g></g></g><g fill="#400040"><g><g><path d="M 14.53125 -10.890625 C 13.84375 -11.441406 13.023438 -11.894531 12.078125 -12.25 C 11.140625 -12.613281 10.253906 -12.796875 9.421875 -12.796875 C 8.890625 -12.796875 8.332031 -12.75 7.75 -12.65625 C 7.175781 -12.5625 6.6875 -12.382812 6.28125 -12.125 C 5.875 -11.875 5.671875 -11.503906 5.671875 -11.015625 C 5.691406 -10.578125 5.894531 -10.210938 6.28125 -9.921875 C 6.664062 -9.640625 7.179688 -9.410156 7.828125 -9.234375 C 8.472656 -9.054688 9.179688 -8.890625 9.953125 -8.734375 C 10.710938 -8.609375 11.46875 -8.441406 12.21875 -8.234375 C 12.96875 -8.023438 13.640625 -7.765625 14.234375 -7.453125 C 14.828125 -7.140625 15.300781 -6.726562 15.65625 -6.21875 C 16.019531 -5.71875 16.203125 -5.101562 16.203125 -4.375 C 16.203125 -3.363281 15.90625 -2.515625 15.3125 -1.828125 C 14.71875 -1.140625 13.925781 -0.613281 12.9375 -0.25 C 11.957031 0.101562 10.890625 0.28125 9.734375 0.28125 C 8.273438 0.28125 6.90625 0.078125 5.625 -0.328125 C 4.351562 -0.734375 3.28125 -1.445312 2.40625 -2.46875 L 4.390625 -4.234375 C 5.035156 -3.585938 5.789062 -3.078125 6.65625 -2.703125 C 7.53125 -2.335938 8.523438 -2.15625 9.640625 -2.15625 C 10.148438 -2.15625 10.691406 -2.207031 11.265625 -2.3125 C 11.847656 -2.414062 12.335938 -2.601562 12.734375 -2.875 C 13.140625 -3.15625 13.34375 -3.539062 13.34375 -4.03125 C 13.34375 -4.46875 13.140625 -4.816406 12.734375 -5.078125 C 12.335938 -5.335938 11.804688 -5.546875 11.140625 -5.703125 C 10.484375 -5.867188 9.773438 -6.019531 9.015625 -6.15625 C 7.921875 -6.382812 6.894531 -6.65625 5.9375 -6.96875 C 4.988281 -7.28125 4.21875 -7.738281 3.625 -8.34375 C 3.039062 -8.945312 2.75 -9.796875 2.75 -10.890625 C 2.75 -11.785156 3.046875 -12.550781 3.640625 -13.1875 C 4.242188 -13.832031 5.039062 -14.328125 6.03125 -14.671875 C 7.019531 -15.023438 8.117188 -15.203125 9.328125 -15.203125 C 10.085938 -15.203125 10.890625 -15.125 11.734375 -14.96875 C 12.578125 -14.8125 13.382812 -14.554688 14.15625 -14.203125 C 14.9375 -13.847656 15.585938 -13.390625 16.109375 -12.828125 Z M 14.53125 -10.890625" transform="translate(304.999 232.026)"/></g></g></g><g fill="#400040"><g><g><path d="M 14.53125 -10.890625 C 13.84375 -11.441406 13.023438 -11.894531 12.078125 -12.25 C 11.140625 -12.613281 10.253906 -12.796875 9.421875 -12.796875 C 8.890625 -12.796875 8.332031 -12.75 7.75 -12.65625 C 7.175781 -12.5625 6.6875 -12.382812 6.28125 -12.125 C 5.875 -11.875 5.671875 -11.503906 5.671875 -11.015625 C 5.691406 -10.578125 5.894531 -10.210938 6.28125 -9.921875 C 6.664062 -9.640625 7.179688 -9.410156 7.828125 -9.234375 C 8.472656 -9.054688 9.179688 -8.890625 9.953125 -8.734375 C 10.710938 -8.609375 11.46875 -8.441406 12.21875 -8.234375 C 12.96875 -8.023438 13.640625 -7.765625 14.234375 -7.453125 C 14.828125 -7.140625 15.300781 -6.726562 15.65625 -6.21875 C 16.019531 -5.71875 16.203125 -5.101562 16.203125 -4.375 C 16.203125 -3.363281 15.90625 -2.515625 15.3125 -1.828125 C 14.71875 -1.140625 13.925781 -0.613281 12.9375 -0.25 C 11.957031 0.101562 10.890625 0.28125 9.734375 0.28125 C 8.273438 0.28125 6.90625 0.078125 5.625 -0.328125 C 4.351562 -0.734375 3.28125 -1.445312 2.40625 -2.46875 L 4.390625 -4.234375 C 5.035156 -3.585938 5.789062 -3.078125 6.65625 -2.703125 C 7.53125 -2.335938 8.523438 -2.15625 9.640625 -2.15625 C 10.148438 -2.15625 10.691406 -2.207031 11.265625 -2.3125 C 11.847656 -2.414062 12.335938 -2.601562 12.734375 -2.875 C 13.140625 -3.15625 13.34375 -3.539062 13.34375 -4.03125 C 13.34375 -4.46875 13.140625 -4.816406 12.734375 -5.078125 C 12.335938 -5.335938 11.804688 -5.546875 11.140625 -5.703125 C 10.484375 -5.867188 9.773438 -6.019531 9.015625 -6.15625 C 7.921875 -6.382812 6.894531 -6.65625 5.9375 -6.96875 C 4.988281 -7.28125 4.21875 -7.738281 3.625 -8.34375 C 3.039062 -8.945312 2.75 -9.796875 2.75 -10.890625 C 2.75 -11.785156 3.046875 -12.550781 3.640625 -13.1875 C 4.242188 -13.832031 5.039062 -14.328125 6.03125 -14.671875 C 7.019531 -15.023438 8.117188 -15.203125 9.328125 -15.203125 C 10.085938 -15.203125 10.890625 -15.125 11.734375 -14.96875 C 12.578125 -14.8125 13.382812 -14.554688 14.15625 -14.203125 C 14.9375 -13.847656 15.585938 -13.390625 16.109375 -12.828125 Z M 14.53125 -10.890625" transform="translate(328.62 232.026)"/></g></g></g></svg>
