<svg xmlns="http://www.w3.org/2000/svg" width="375" viewBox="0 0 375 375" height="375" version="1.0"><defs><clipPath id="a"><path d="M 40 40.113281 L 276 40.113281 L 276 283 L 40 283 Z M 40 40.113281"/></clipPath></defs><path fill="#400040" d="M 295.058594 246.015625 C 281.574219 240.808594 267.835938 239.785156 256.148438 242.3125 L 256.148438 100.84375 L 99.828125 85.875 L 108.210938 143.199219 L 225.234375 136.363281 L 225.234375 279.378906 L 225.417969 279.378906 C 227.230469 296.988281 242.460938 314.910156 265.066406 323.640625 C 294.183594 334.882812 324.503906 326.621094 332.785156 305.1875 C 341.066406 283.75 324.175781 257.257812 295.058594 246.015625"/><g clip-path="url(#a)"><path fill="#FF914D" d="M 79.871094 200.265625 C 93.355469 195.054688 107.089844 194.039062 118.78125 196.5625 L 118.78125 151.394531 L 149.695312 149.585938 L 149.695312 233.625 L 149.511719 233.625 C 147.703125 251.234375 132.46875 269.15625 109.863281 277.886719 C 80.746094 289.128906 50.425781 280.867188 42.144531 259.4375 C 33.863281 237.996094 50.753906 211.507812 79.871094 200.265625 Z M 118.78125 55.09375 L 275.101562 40.121094 L 266.722656 97.445312 L 244.25 96.132812 L 118.78125 84.117188 L 118.78125 55.09375"/></g></svg>