<svg xmlns="http://www.w3.org/2000/svg" width="375" viewBox="0 0 375 375" height="375" version="1.0"><defs><clipPath id="a"><path d="M 16.25 221 L 202 221 L 202 347.382812 L 16.25 347.382812 Z M 16.25 221"/></clipPath><clipPath id="b"><path d="M 259 33.882812 L 329.75 33.882812 L 329.75 347.382812 L 259 347.382812 Z M 259 33.882812"/></clipPath><clipPath id="c"><path d="M 170 173.234375 L 283.890625 173.234375 L 283.890625 347.382812 L 170 347.382812 Z M 170 173.234375"/></clipPath><clipPath id="d"><path d="M 230.066406 257.285156 L 283.890625 257.285156 L 283.890625 347.382812 L 230.066406 347.382812 Z M 230.066406 257.285156"/></clipPath><clipPath id="e"><path d="M 259.3125 0 L 329.8125 0 L 329.8125 35.214844 L 259.3125 35.214844 Z M 259.3125 0"/></clipPath><clipPath id="f"><path d="M 328.007812 32.761719 L 363.257812 32.761719 L 363.257812 103.261719 L 328.007812 103.261719 Z M 328.007812 32.761719"/></clipPath><clipPath id="g"><path d="M 328.007812 83.523438 L 363.257812 83.523438 L 363.257812 154 L 328.007812 154 Z M 328.007812 83.523438"/></clipPath><clipPath id="h"><path d="M 328.007812 135.335938 L 363.257812 135.335938 L 363.257812 205.835938 L 328.007812 205.835938 Z M 328.007812 135.335938"/></clipPath><clipPath id="i"><path d="M 328.007812 185.558594 L 363.257812 185.558594 L 363.257812 256.058594 L 328.007812 256.058594 Z M 328.007812 185.558594"/></clipPath><clipPath id="j"><path d="M 315 274 L 365 274 L 365 348 L 315 348 Z M 315 274"/></clipPath><clipPath id="k"><path d="M 315.527344 345.515625 L 339.449219 274.433594 L 374.988281 286.398438 L 351.066406 357.480469 Z M 315.527344 345.515625"/></clipPath><clipPath id="l"><path d="M 315.527344 345.515625 L 339.449219 274.433594 L 374.988281 286.398438 L 351.066406 357.480469 Z M 315.527344 345.515625"/></clipPath><clipPath id="m"><path d="M 328.007812 239.148438 L 363.257812 239.148438 L 363.257812 309.648438 L 328.007812 309.648438 Z M 328.007812 239.148438"/></clipPath><clipPath id="n"><path d="M 16 267 L 179 267 L 179 363 L 16 363 Z M 16 267"/></clipPath><clipPath id="o"><path d="M 106.964844 428.75 L 16.066406 348.125 L 87.234375 267.890625 L 178.128906 348.511719 Z M 106.964844 428.75"/></clipPath><clipPath id="p"><path d="M 106.964844 428.75 L 16.066406 348.125 L 87.234375 267.890625 L 178.128906 348.511719 Z M 106.964844 428.75"/></clipPath><clipPath id="q"><path d="M 5 222 L 80 222 L 80 349 L 5 349 Z M 5 222"/></clipPath><clipPath id="r"><path d="M -45.785156 292.921875 L 16.683594 222.015625 L 79.710938 277.542969 L 17.242188 348.449219 Z M -45.785156 292.921875"/></clipPath><clipPath id="s"><path d="M -45.785156 292.921875 L 16.683594 222.015625 L 79.710938 277.542969 L 17.242188 348.449219 Z M -45.785156 292.921875"/></clipPath></defs><g clip-path="url(#a)"><path fill="#400040" d="M 200.398438 347.382812 C 200.398438 347.382812 207.882812 342.867188 189.660156 330.769531 C 171.4375 318.675781 163.597656 307.019531 162.792969 282.355469 C 161.980469 257.695312 120.28125 221.351562 64.828125 270.503906 C 64.828125 270.503906 50.640625 269.734375 46.773438 252.894531 C 42.902344 236.054688 32.589844 216.871094 16.25 221.789062 L 16.25 347.382812 L 200.398438 347.382812"/></g><g clip-path="url(#b)"><path fill="#400040" d="M 259.523438 33.886719 C 260.347656 46.789062 304.835938 57.832031 322.332031 82.425781 C 340.382812 107.816406 310.722656 131.296875 296.757812 154.03125 C 282.789062 176.761719 305.132812 189.332031 313.300781 219.824219 C 321.46875 250.316406 316.742188 250.316406 307.714844 284.308594 C 298.6875 318.300781 311.957031 347.382812 311.957031 347.382812 L 329.746094 347.382812 L 329.746094 33.886719 L 259.523438 33.886719"/></g><path fill="#FF914D" d="M 127.628906 146.109375 C 128.453125 148.359375 126.765625 151.308594 123.863281 152.699219 C 120.960938 154.089844 117.9375 153.394531 117.117188 151.144531 C 116.292969 148.894531 117.980469 145.945312 120.882812 144.558594 C 123.789062 143.167969 126.804688 143.863281 127.628906 146.109375"/><path fill="#FF914D" d="M 146.226562 141.335938 C 147.046875 143.585938 145.363281 146.535156 142.457031 147.925781 C 139.554688 149.320312 136.535156 148.621094 135.710938 146.371094 C 134.886719 144.125 136.574219 141.175781 139.480469 139.785156 C 142.382812 138.390625 145.402344 139.089844 146.226562 141.335938"/><path fill="#FF914D" d="M 139.679688 116.101562 L 141.21875 115.480469 L 146.226562 141.335938 L 144.640625 141.742188 L 139.679688 116.101562"/><path fill="#FF914D" d="M 121.550781 123.398438 L 123.140625 122.988281 L 127.667969 146.097656 L 126.085938 146.503906 L 121.550781 123.398438"/><path fill="#FF914D" d="M 142.300781 120.980469 L 122.628906 128.898438 L 121.550781 123.398438 L 141.21875 115.480469 L 142.300781 120.980469"/><path fill="#FF914D" d="M 117.347656 80.664062 C 117.789062 82.851562 115.859375 85.226562 113.035156 85.96875 C 110.214844 86.71875 107.574219 85.550781 107.128906 83.367188 C 106.6875 81.183594 108.613281 78.804688 111.4375 78.058594 C 114.261719 77.3125 116.902344 78.480469 117.347656 80.664062"/><path fill="#FF914D" d="M 111.03125 53.085938 L 112.496094 52.757812 L 117.125 79.851562 L 115.660156 80.179688 L 111.03125 53.085938"/><path fill="#FF914D" d="M 111.113281 53.570312 L 111.03125 53.085938 C 111.03125 53.085938 111.722656 51.707031 112.738281 52.777344 C 113.679688 53.765625 114.304688 55.660156 117.070312 56.863281 C 123.015625 59.4375 122.449219 66.515625 122.449219 66.515625 C 122.449219 66.515625 120.261719 59.257812 112.179688 59.789062 L 111.113281 53.570312"/><path fill="#FF914D" d="M 48.414062 109.183594 C 47.40625 111.105469 44.574219 111.28125 42.089844 109.570312 C 39.613281 107.867188 38.417969 104.921875 39.429688 103 C 40.441406 101.082031 43.273438 100.90625 45.75 102.617188 C 48.234375 104.324219 49.421875 107.265625 48.414062 109.183594"/><path fill="#FF914D" d="M 60.640625 84.34375 L 61.894531 85.273438 L 48.75 108.429688 L 47.496094 107.496094 L 60.640625 84.34375"/><path fill="#FF914D" d="M 43.371094 195.15625 C 43.027344 197.363281 40.4375 198.679688 37.585938 198.097656 C 34.734375 197.511719 32.703125 195.246094 33.050781 193.042969 C 33.398438 190.835938 35.988281 189.519531 38.835938 190.105469 C 41.6875 190.6875 43.71875 192.949219 43.371094 195.15625"/><path fill="#FF914D" d="M 47.054688 166.960938 L 48.515625 167.320312 L 43.453125 194.316406 L 41.992188 193.953125 L 47.054688 166.960938"/><path fill="#FF914D" d="M 46.964844 167.445312 L 47.054688 166.960938 C 47.054688 166.960938 48.164062 166.007812 48.730469 167.445312 C 49.253906 168.777344 49.175781 170.804688 51.308594 173.152344 C 55.890625 178.199219 52.933594 184.449219 52.933594 184.449219 C 52.933594 184.449219 53.417969 176.796875 45.804688 173.640625 L 46.964844 167.445312"/><path fill="#400040" d="M 187.058594 107.390625 C 186.585938 106.898438 174.664062 112.628906 178.683594 122.625 C 182.699219 132.632812 187.113281 139.234375 184.152344 144.964844 C 181.191406 150.683594 194.046875 117.800781 194.046875 117.800781 L 187.058594 107.390625"/><path fill="#E66F64" d="M 98.277344 188.460938 C 98.277344 188.460938 109.996094 171.699219 104.578125 157.445312 C 99.152344 143.199219 97.09375 155.488281 93.066406 187.367188 L 98.277344 188.460938"/><path fill="#E66F64" d="M 88.683594 158.421875 C 87.5 158.90625 86.335938 159.417969 85.21875 160.023438 C 81.914062 161.820312 78.597656 163.597656 75.207031 165.242188 C 75.183594 170.335938 75.894531 176.652344 77.828125 184.644531 C 77.828125 184.644531 95.128906 194.898438 102.082031 182.011719 C 102.082031 182.011719 101.992188 174.203125 99.386719 161.40625 C 99.121094 160.109375 98.875 158.949219 98.648438 157.886719 C 95.332031 157.542969 91.996094 157.769531 88.683594 158.421875"/><path fill="#400040" d="M 217.371094 210.9375 C 225.460938 193.90625 236.484375 188.945312 236.484375 188.945312 C 184.964844 154.632812 103.921875 223.292969 89.519531 232.847656 C 81.21875 243.246094 76.789062 245.207031 76.449219 255.40625 C 76.304688 259.839844 100.179688 260.351562 120.039062 256.011719 C 185.828125 242.761719 207.621094 231.414062 217.371094 210.9375"/><path fill="#E66F64" d="M 103.867188 252.335938 C 94.242188 268.65625 83.5 269.753906 68.851562 266.941406 C 63.316406 253.59375 50.511719 216.066406 92.683594 171.113281 C 92.683594 171.113281 111.664062 168.425781 107.53125 185.589844 C 100.5625 214.511719 105.203125 192.289062 103.878906 249.660156 C 103.859375 250.523438 103.867188 251.445312 103.867188 252.335938"/><g clip-path="url(#c)"><path fill="#2E3192" d="M 178.035156 347.382812 C 174.929688 330.941406 165.273438 271.652344 173.140625 204.675781 C 173.140625 204.675781 169.550781 169.113281 212.832031 173.953125 C 212.832031 173.953125 277.394531 188.722656 281.683594 219.414062 C 281.683594 219.414062 287.710938 286.996094 277 347.382812 L 178.035156 347.382812"/></g><path fill="#400040" d="M 199.425781 210.359375 L 182.222656 194.726562 L 195.039062 180.644531 L 185.875 164.695312 L 213.613281 159.066406 L 218.90625 181.039062 L 215.058594 200.503906 L 199.425781 210.359375"/><path fill="#E66F64" d="M 217.941406 181.273438 C 217.941406 181.273438 195.582031 198.515625 200.128906 220.179688 C 200.128906 220.179688 263.273438 209.675781 253.1875 191.367188 C 243.105469 173.042969 217.941406 181.273438 217.941406 181.273438"/><path fill="#2E3192" d="M 274.050781 250.21875 C 290.925781 215.65625 264.382812 205.609375 264.382812 205.609375 C 219.492188 215.859375 168.707031 253.664062 143.359375 274.378906 C 137.148438 292.632812 162.90625 286.691406 168.097656 298.195312 C 189.25 298.304688 263.703125 271.410156 274.050781 250.21875"/><path fill="#E66F64" d="M 204.160156 165.582031 C 204.160156 165.582031 219.507812 174.335938 220.476562 191.96875 C 220.476562 191.96875 239.203125 202.207031 251.316406 190.761719 C 251.316406 190.761719 250.222656 192.878906 245.277344 144.75 C 244.046875 132.714844 204.160156 165.582031 204.160156 165.582031"/><path fill="#2E3192" d="M 228.753906 215.234375 L 218.84375 205.242188 L 231.660156 191.160156 L 222.5 175.210938 L 250.234375 169.582031 L 255.53125 191.554688 L 251.6875 211.015625 L 228.753906 215.234375"/><path fill="#F68C82" d="M 249.636719 96.433594 C 249.636719 96.433594 213.632812 71.691406 188.167969 86.808594 C 188.167969 86.808594 183.292969 111.738281 180.945312 131.195312 C 180.835938 132.167969 181.003906 144.707031 181.222656 145.636719 C 186.355469 167.511719 189.261719 170.839844 190.292969 171.90625 C 190.292969 171.90625 229.199219 178.277344 241.398438 151.886719 C 252.386719 128.128906 257.605469 105.121094 249.636719 96.433594"/><path fill="#F68C82" d="M 187.640625 296.492188 C 173.113281 303.8125 135.351562 304.144531 125.257812 301.601562 C 111.027344 297.894531 77.875 234.957031 85.007812 180.175781 C 85.007812 180.175781 104.140625 177.429688 105.5 191.585938 C 113.027344 269.375 187.144531 295.804688 187.640625 296.492188"/><path fill="#F68C82" d="M 123.191406 173.332031 C 123.191406 173.332031 113.269531 151.9375 95.917969 149.089844 C 78.5625 146.234375 89.628906 155.414062 119.078125 177.914062 L 123.191406 173.332031"/><path fill="#F68C82" d="M 82.808594 176.90625 C 82.914062 177.441406 83.015625 178.007812 83.136719 178.484375 C 83.363281 179.402344 83.664062 180.277344 83.9375 181.160156 C 89.230469 184.710938 94.644531 188.339844 105.5 191.585938 C 105.5 191.585938 127.78125 180.226562 118.964844 165.820312 C 118.964844 165.820312 111.125 161.382812 96.859375 156.558594 C 95.300781 156.035156 93.921875 155.570312 92.636719 155.164062 C 85.863281 161.730469 83.433594 168.082031 82.808594 176.90625"/><g clip-path="url(#d)"><path fill="#2E3192" d="M 279 347.382812 L 230.25 347.382812 L 283.328125 257.910156 C 283.328125 257.910156 278.820312 321.585938 278.726562 325.296875 C 278.535156 333.089844 278.675781 340.515625 279 347.382812"/></g><path fill="#2E3192" d="M 181.402344 96.800781 C 181.402344 96.800781 169.105469 112.574219 189.570312 109.398438 C 210.023438 106.21875 209.890625 118.769531 211.855469 121.246094 C 213.832031 123.730469 221.527344 128.34375 233.070312 130.488281 C 244.617188 132.632812 244.933594 134.941406 244.964844 138.222656 C 244.992188 141.503906 244.558594 157.960938 244.558594 157.960938 L 248.253906 171.8125 C 248.253906 171.8125 252.425781 174.378906 256.894531 171.179688 C 260.910156 168.296875 260.554688 162.128906 260.554688 162.128906 C 260.554688 162.128906 253.914062 168.871094 254.21875 162.640625 C 254.523438 156.414062 262.042969 162.953125 265.277344 150.914062 C 266.957031 144.664062 262.609375 138.699219 262.351562 138.128906 C 260.433594 133.839844 260.039062 131.515625 263.136719 128.402344 C 266.242188 125.28125 272.472656 112.679688 268.601562 107.421875 C 264.730469 102.15625 258.054688 97.136719 256.21875 90.777344 C 254.386719 84.40625 248.914062 70.566406 231.371094 67.617188 C 213.816406 64.667969 206.445312 70.398438 197.878906 71.824219 C 177.542969 75.1875 156.425781 69.128906 162.015625 83.285156 C 166.554688 94.769531 178.058594 97.078125 181.402344 96.800781"/><path fill="#2E3192" d="M 229.714844 124.480469 C 229.746094 124.851562 227.847656 152.0625 231.46875 154.550781 C 235.097656 157.035156 252.617188 132.648438 252.738281 132.1875 C 252.855469 131.734375 243.21875 119.28125 242.640625 119.128906 C 242.070312 118.980469 229.714844 124.480469 229.714844 124.480469"/><path fill="#F68C82" d="M 230.941406 144.023438 C 227.484375 152.101562 228.398438 160.238281 232.972656 162.191406 C 237.550781 164.15625 244.078125 159.1875 247.53125 151.121094 C 250.972656 143.046875 250.0625 134.917969 245.488281 132.953125 C 240.890625 130.992188 234.394531 135.945312 230.941406 144.023438"/><g clip-path="url(#e)"><path fill="#400040" d="M 259.347656 35.214844 C 259.347656 15.742188 275.125 -0.0351562 294.589844 -0.0351562 C 314.058594 -0.0351562 329.777344 15.742188 329.777344 35.214844 Z M 259.347656 35.214844"/></g><g clip-path="url(#f)"><path fill="#400040" d="M 328.007812 32.796875 C 347.476562 32.796875 363.257812 48.574219 363.257812 68.039062 C 363.257812 87.507812 347.476562 103.226562 328.007812 103.226562 Z M 328.007812 32.796875"/></g><g clip-path="url(#g)"><path fill="#400040" d="M 328.007812 83.558594 C 347.476562 83.558594 363.257812 99.335938 363.257812 118.804688 C 363.257812 138.269531 347.476562 153.988281 328.007812 153.988281 Z M 328.007812 83.558594"/></g><g clip-path="url(#h)"><path fill="#400040" d="M 328.007812 135.371094 C 347.476562 135.371094 363.257812 151.144531 363.257812 170.613281 C 363.257812 190.082031 347.476562 205.796875 328.007812 205.796875 Z M 328.007812 135.371094"/></g><g clip-path="url(#i)"><path fill="#400040" d="M 328.007812 185.59375 C 347.476562 185.59375 363.257812 201.371094 363.257812 220.835938 C 363.257812 240.304688 347.476562 256.023438 328.007812 256.023438 Z M 328.007812 185.59375"/></g><g clip-path="url(#j)"><g clip-path="url(#k)"><g clip-path="url(#l)"><path fill="#400040" d="M 339.4375 274.464844 C 359.070312 281.074219 369.625 302.335938 363.019531 321.96875 C 356.410156 341.601562 335.167969 352.09375 315.535156 345.488281 Z M 339.4375 274.464844"/></g></g></g><g clip-path="url(#m)"><path fill="#400040" d="M 328.007812 239.183594 C 347.476562 239.183594 363.257812 254.960938 363.257812 274.429688 C 363.257812 293.894531 347.476562 309.613281 328.007812 309.613281 Z M 328.007812 239.183594"/></g><g clip-path="url(#n)"><g clip-path="url(#o)"><g clip-path="url(#p)"><path fill="#400040" d="M 87.230469 267.894531 L 178.128906 348.515625 C 158.617188 367.628906 147.425781 349.816406 133.128906 347.570312 C 118.699219 345.210938 111.214844 363.621094 91.433594 362.3125 C 71.667969 361.25 65.519531 351.390625 56.5625 347.851562 C 47.601562 344.3125 38.125 352.375 29.550781 353.121094 C 22.320312 353.664062 16.070312 348.121094 16.070312 348.121094 Z M 87.230469 267.894531"/></g></g></g><g clip-path="url(#q)"><g clip-path="url(#r)"><g clip-path="url(#s)"><path fill="#400040" d="M 79.710938 277.542969 L 17.238281 348.449219 C 2.210938 333.226562 16.0625 324.496094 17.738281 313.34375 C 19.503906 302.085938 5.089844 296.242188 6.003906 280.8125 C 6.730469 265.390625 14.394531 260.597656 17.113281 253.609375 C 19.828125 246.617188 13.484375 239.222656 12.855469 232.535156 C 12.390625 226.894531 16.6875 222.015625 16.6875 222.015625 Z M 79.710938 277.542969"/></g></g></g></svg>