<svg xmlns="http://www.w3.org/2000/svg" width="375" viewBox="0 0 375 375" height="375" version="1.0"><g fill="#FF914D"><g><g><path d="M 27.734375 -36.4375 C 29.816406 -36.4375 31.722656 -35.941406 33.453125 -34.953125 C 35.191406 -33.960938 36.59375 -32.625 37.65625 -30.9375 C 38.71875 -29.257812 39.25 -27.363281 39.25 -25.25 C 39.25 -23.0625 38.679688 -21.085938 37.546875 -19.328125 C 36.421875 -17.578125 34.929688 -16.179688 33.078125 -15.140625 C 31.222656 -14.097656 29.179688 -13.578125 26.953125 -13.578125 L 13.84375 -13.578125 L 13.84375 0 L 8.21875 0 L 8.21875 -36.4375 Z M 26.59375 -19 C 27.8125 -19 28.929688 -19.285156 29.953125 -19.859375 C 30.972656 -20.429688 31.785156 -21.1875 32.390625 -22.125 C 33.003906 -23.0625 33.3125 -24.101562 33.3125 -25.25 C 33.3125 -26.320312 33.003906 -27.289062 32.390625 -28.15625 C 31.785156 -29.019531 30.972656 -29.710938 29.953125 -30.234375 C 28.929688 -30.753906 27.8125 -31.015625 26.59375 -31.015625 L 13.84375 -31.015625 L 13.84375 -19 Z M 26.59375 -19" transform="translate(24.84 205.643)"/></g></g></g><g fill="#FF914D"><g><g><path d="M 37.578125 -27.328125 L 37.578125 0 L 32.171875 0 L 32.171875 -4.625 C 31.503906 -3.757812 30.570312 -2.9375 29.375 -2.15625 C 28.175781 -1.375 26.785156 -0.734375 25.203125 -0.234375 C 23.628906 0.265625 21.976562 0.515625 20.25 0.515625 C 17.195312 0.515625 14.53125 -0.0859375 12.25 -1.296875 C 9.976562 -2.515625 8.207031 -4.195312 6.9375 -6.34375 C 5.675781 -8.5 5.046875 -10.945312 5.046875 -13.6875 C 5.046875 -16.46875 5.710938 -18.921875 7.046875 -21.046875 C 8.390625 -23.179688 10.226562 -24.851562 12.5625 -26.0625 C 14.90625 -27.28125 17.625 -27.890625 20.71875 -27.890625 C 23.25 -27.890625 25.519531 -27.445312 27.53125 -26.5625 C 29.539062 -25.6875 31.085938 -24.65625 32.171875 -23.46875 L 32.171875 -27.328125 Z M 21.4375 -4.421875 C 23.625 -4.421875 25.53125 -4.828125 27.15625 -5.640625 C 28.789062 -6.460938 30.066406 -7.566406 30.984375 -8.953125 C 31.910156 -10.335938 32.375 -11.914062 32.375 -13.6875 C 32.375 -15.457031 31.910156 -17.035156 30.984375 -18.421875 C 30.066406 -19.804688 28.789062 -20.898438 27.15625 -21.703125 C 25.53125 -22.503906 23.625 -22.90625 21.4375 -22.90625 C 19.289062 -22.90625 17.398438 -22.503906 15.765625 -21.703125 C 14.140625 -20.898438 12.859375 -19.804688 11.921875 -18.421875 C 10.984375 -17.035156 10.515625 -15.457031 10.515625 -13.6875 C 10.515625 -11.914062 10.984375 -10.335938 11.921875 -8.953125 C 12.859375 -7.566406 14.140625 -6.460938 15.765625 -5.640625 C 17.398438 -4.828125 19.289062 -4.421875 21.4375 -4.421875 Z M 21.4375 -4.421875" transform="translate(65.517 205.643)"/></g></g></g><g fill="#FF914D"><g><g><path d="M 31.703125 -13.484375 L 31.703125 -27.328125 L 37.0625 -27.328125 L 37.0625 0 L 31.703125 0 L 31.703125 -4.6875 C 30.691406 -3.363281 29.195312 -2.164062 27.21875 -1.09375 C 25.238281 -0.0195312 22.828125 0.515625 19.984375 0.515625 C 17.691406 0.515625 15.6875 -0.0078125 13.96875 -1.0625 C 12.25 -2.125 10.910156 -3.644531 9.953125 -5.625 C 9.003906 -7.601562 8.53125 -9.960938 8.53125 -12.703125 L 8.53125 -27.328125 L 13.890625 -27.328125 L 13.890625 -14.515625 C 13.890625 -11.398438 14.539062 -8.972656 15.84375 -7.234375 C 17.144531 -5.492188 19.253906 -4.625 22.171875 -4.625 C 23.910156 -4.625 25.5 -4.976562 26.9375 -5.6875 C 28.375 -6.40625 29.523438 -7.421875 30.390625 -8.734375 C 31.265625 -10.054688 31.703125 -11.640625 31.703125 -13.484375 Z M 31.703125 -13.484375" transform="translate(107.338 205.643)"/></g></g></g><g fill="#FF914D"><g><g><path d="M 8.90625 0 L 8.90625 -38.515625 L 14.265625 -38.515625 L 14.265625 0 Z M 8.90625 0" transform="translate(148.638 205.643)"/></g></g></g><g fill="#400040"><g><g><path d="M 37.421875 0 L 33.40625 -8.6875 L 13.6875 -8.6875 L 9.6875 0 L 3.796875 0 L 20.5625 -36.4375 L 26.90625 -36.4375 L 43.5625 0 Z M 20.71875 -24 L 16.1875 -14.109375 L 30.96875 -14.109375 L 26.28125 -24.203125 C 25.800781 -25.273438 25.332031 -26.332031 24.875 -27.375 C 24.425781 -28.414062 23.992188 -29.523438 23.578125 -30.703125 C 23.085938 -29.492188 22.609375 -28.34375 22.140625 -27.25 C 21.671875 -26.15625 21.195312 -25.070312 20.71875 -24 Z M 20.71875 -24" transform="translate(167.62 205.643)"/></g></g></g><g fill="#400040"><g><g><path d="M 13.640625 11.96875 L 19.40625 1.359375 L 4.21875 -27.328125 L 10.46875 -27.328125 L 18.6875 -10.9375 C 19.445312 -9.476562 20.140625 -8.097656 20.765625 -6.796875 C 21.390625 -5.492188 21.875 -4.320312 22.21875 -3.28125 C 22.675781 -4.351562 23.179688 -5.53125 23.734375 -6.8125 C 24.285156 -8.101562 24.945312 -9.507812 25.71875 -11.03125 L 33.3125 -27.328125 L 39.609375 -27.328125 L 25.5 -0.046875 L 19.40625 11.96875 Z M 13.640625 11.96875" transform="translate(210.689 205.643)"/></g></g></g><g fill="#400040"><g><g><path d="M 12.40625 -33.53125 C 11.15625 -33.53125 10.242188 -33.84375 9.671875 -34.46875 C 9.097656 -35.09375 8.8125 -35.90625 8.8125 -36.90625 C 8.8125 -37.78125 9.097656 -38.5625 9.671875 -39.25 C 10.242188 -39.945312 11.15625 -40.296875 12.40625 -40.296875 C 13.613281 -40.296875 14.515625 -39.984375 15.109375 -39.359375 C 15.703125 -38.734375 16 -37.914062 16 -36.90625 C 16 -36.039062 15.703125 -35.257812 15.109375 -34.5625 C 14.515625 -33.875 13.613281 -33.53125 12.40625 -33.53125 Z M 14.890625 0 L 9.53125 0 L 9.53125 -27.328125 L 14.890625 -27.328125 Z M 14.890625 0" transform="translate(250.22 205.643)"/></g></g></g><g fill="#400040"><g><g><path d="M 10.9375 -13.6875 C 10.9375 -11.882812 11.410156 -10.28125 12.359375 -8.875 C 13.316406 -7.46875 14.597656 -6.351562 16.203125 -5.53125 C 17.816406 -4.71875 19.597656 -4.3125 21.546875 -4.3125 C 24.046875 -4.3125 26.195312 -4.738281 28 -5.59375 C 29.800781 -6.445312 31.347656 -7.320312 32.640625 -8.21875 L 35.546875 -4.21875 C 33.847656 -2.9375 31.816406 -1.828125 29.453125 -0.890625 C 27.097656 0.046875 24.394531 0.515625 21.34375 0.515625 C 18.320312 0.515625 15.613281 -0.109375 13.21875 -1.359375 C 10.820312 -2.609375 8.929688 -4.304688 7.546875 -6.453125 C 6.160156 -8.609375 5.46875 -11.019531 5.46875 -13.6875 C 5.46875 -16.394531 6.160156 -18.816406 7.546875 -20.953125 C 8.929688 -23.085938 10.820312 -24.773438 13.21875 -26.015625 C 15.613281 -27.265625 18.320312 -27.890625 21.34375 -27.890625 C 24.363281 -27.890625 27.128906 -27.410156 29.640625 -26.453125 C 32.148438 -25.503906 34.117188 -24.195312 35.546875 -22.53125 L 32.53125 -18.375 C 31.695312 -19.238281 30.671875 -20.023438 29.453125 -20.734375 C 28.242188 -21.453125 26.941406 -22.019531 25.546875 -22.4375 C 24.160156 -22.851562 22.8125 -23.0625 21.5 -23.0625 C 19.414062 -23.0625 17.570312 -22.648438 15.96875 -21.828125 C 14.375 -21.015625 13.132812 -19.90625 12.25 -18.5 C 11.375 -17.09375 10.9375 -15.488281 10.9375 -13.6875 Z M 10.9375 -13.6875" transform="translate(270.142 205.643)"/></g></g></g><g fill="#400040"><g><g><path d="M 8.90625 0 L 8.90625 -38.515625 L 13.890625 -38.515625 L 13.890625 -13.53125 L 31.015625 -27.328125 L 38.46875 -27.328125 L 24 -15.921875 L 38.71875 0 L 31.859375 0 L 20.03125 -12.796875 L 13.890625 -7.96875 L 13.890625 0 Z M 8.90625 0" transform="translate(306.604 205.643)"/></g></g></g></svg>